<svg width="20" height="20" fill="none" xmlns="http://www.w3.org/2000/svg">
  <path fill-rule="evenodd" clip-rule="evenodd" d="M4.615 17.143V2.857c0-.758.325-1.484.902-2.02A3.201 3.201 0 017.692 0h4.616c.816 0 1.598.301 2.175.837.577.536.902 1.262.902 2.02v14.286c0 .758-.325 1.484-.902 2.02a3.201 3.201 0 01-2.175.837H7.692a3.201 3.201 0 01-2.175-.837 2.758 2.758 0 01-.902-2.02zm1.539 0c0 .379.162.742.45 1.01a1.6 1.6 0 001.088.418h4.616c.408 0 .799-.15 1.088-.418.288-.268.45-.631.45-1.01V2.857c0-.379-.162-.742-.45-1.01a1.6 1.6 0 00-1.088-.418H7.692c-.408 0-.799.15-1.088.418-.288.268-.45.631-.45 1.01v14.286zM.769 20a.8.8 0 01-.544-.21.69.69 0 01-.225-.504V.714A.69.69 0 01.225.21.8.8 0 01.77 0a.8.8 0 01.544.21.69.69 0 01.225.504v18.572a.69.69 0 01-.225.505A.8.8 0 01.77 20zm18.462 0a.8.8 0 01-.544-.21.69.69 0 01-.226-.504V.714a.69.69 0 01.226-.505A.8.8 0 0119.23 0a.8.8 0 01.544.21.69.69 0 01.225.504v18.572a.69.69 0 01-.225.505.8.8 0 01-.544.209z" fill="#33BDE4"/>
</svg>
